<svg width="917" height="367" viewBox="0 0 917 367" fill="none" xmlns="http://www.w3.org/2000/svg">
<rect width="917" height="367" fill="#F3DEB3"/>
<path d="M127.2 235.44C116.736 235.44 108.336 232.848 102 227.664C95.664 222.384 92.304 215.328 91.92 206.496H110.208C110.4 210.72 112.032 213.984 115.104 216.288C118.176 218.592 122.352 219.744 127.632 219.744C133.008 219.744 137.136 218.544 140.016 216.144C142.896 213.744 144.336 210.528 144.336 206.496C144.336 202.944 143.232 199.872 141.024 197.28C138.912 194.592 135.936 192.72 132.096 191.664L120.576 188.496C102.816 183.696 93.936 173.376 93.936 157.536C93.936 148.896 96.912 141.984 102.864 136.8C108.912 131.52 117.12 128.88 127.488 128.88C137.376 128.88 145.296 131.424 151.248 136.512C157.2 141.504 160.416 148.368 160.896 157.104H142.608C142.416 153.168 140.928 150.096 138.144 147.888C135.36 145.68 131.664 144.576 127.056 144.576C122.448 144.576 118.752 145.728 115.968 148.032C113.28 150.336 111.936 153.312 111.936 156.96C111.936 163.68 116.064 168.24 124.32 170.64L136.416 174.096C144.864 176.4 151.296 180.24 155.712 185.616C160.224 190.992 162.48 197.712 162.48 205.776C162.48 210.192 161.616 214.224 159.888 217.872C158.256 221.52 155.904 224.64 152.832 227.232C149.76 229.824 146.064 231.84 141.744 233.28C137.424 234.72 132.576 235.44 127.2 235.44Z" fill="url(#paint0_linear)"/>
<path d="M261.884 234V130.32H325.676V146.16H279.884V172.8H320.636V188.64H279.884V218.16H325.676V234H261.884Z" fill="url(#paint1_linear)"/>
<path d="M461.368 130.32C466.552 130.32 471.256 131.088 475.48 132.624C479.8 134.064 483.448 136.176 486.424 138.96C489.4 141.648 491.704 144.96 493.336 148.896C494.968 152.736 495.784 157.056 495.784 161.856C495.784 166.56 494.968 170.88 493.336 174.816C491.704 178.656 489.4 181.968 486.424 184.752C483.448 187.536 479.8 189.696 475.48 191.232C471.256 192.672 466.552 193.392 461.368 193.392H443.8V234H425.8V130.32H461.368ZM443.8 145.584V178.128H461.368C466.36 178.128 470.296 176.64 473.176 173.664C476.152 170.688 477.64 166.752 477.64 161.856C477.64 156.96 476.152 153.024 473.176 150.048C470.296 147.072 466.36 145.584 461.368 145.584H443.8Z" fill="url(#paint2_linear)"/>
<path d="M592.452 234V218.304H614.628V146.016H592.452V130.32H654.948V146.016H632.772V218.304H654.948V234H592.452Z" fill="url(#paint3_linear)"/>
<path d="M777.392 130.176H801.728L828.944 234H810.368L804.176 207.936H774.08L767.888 234H749.456L777.392 130.176ZM800.72 193.536L791.936 156.528C791.552 154.8 791.168 153.12 790.784 151.488C790.496 149.76 790.256 148.224 790.064 146.88C789.872 145.248 789.68 143.712 789.488 142.272H788.768C788.576 143.712 788.384 145.248 788.192 146.88C788 148.224 787.76 149.76 787.472 151.488C787.184 153.12 786.8 154.8 786.32 156.528L777.536 193.536H800.72Z" fill="url(#paint4_linear)"/>
<defs>
<linearGradient id="paint0_linear" x1="127" y1="141" x2="105" y2="234" gradientUnits="userSpaceOnUse">
<stop stop-color="#6F5D75"/>
<stop offset="0.920934" stop-color="#F3DEB3"/>
</linearGradient>
<linearGradient id="paint1_linear" x1="278.5" y1="136" x2="303" y2="241" gradientUnits="userSpaceOnUse">
<stop stop-color="#6F5D75"/>
<stop offset="0.920934" stop-color="#F3DEB3"/>
</linearGradient>
<linearGradient id="paint2_linear" x1="444" y1="136" x2="426" y2="234" gradientUnits="userSpaceOnUse">
<stop stop-color="#6F5D75"/>
<stop offset="0.920934" stop-color="#F3DEB3"/>
</linearGradient>
<linearGradient id="paint3_linear" x1="609.5" y1="136" x2="657.5" y2="234" gradientUnits="userSpaceOnUse">
<stop stop-color="#6F5D75"/>
<stop offset="0.920934" stop-color="#F3DEB3"/>
</linearGradient>
<linearGradient id="paint4_linear" x1="775" y1="136" x2="816" y2="229" gradientUnits="userSpaceOnUse">
<stop stop-color="#6F5D75"/>
<stop offset="0.920934" stop-color="#F3DEB3"/>
</linearGradient>
</defs>
</svg>
